<?xml version="1.0" encoding="UTF-8"?>
<svg width="409px" height="368px" viewBox="0 0 409 368" version="1.1" xmlns="http://www.w3.org/2000/svg" xmlns:xlink="http://www.w3.org/1999/xlink">
    <!-- Generator: Sketch 55.2 (78181) - https://sketchapp.com -->
    <title>404</title>
    <desc>Created with Sketch.</desc>
    <defs>
        <linearGradient x1="50%" y1="100%" x2="50%" y2="0%" id="linearGradient-1">
            <stop stop-color="#808080" stop-opacity="0.25" offset="0%"></stop>
            <stop stop-color="#808080" stop-opacity="0.12" offset="54%"></stop>
            <stop stop-color="#808080" stop-opacity="0.1" offset="100%"></stop>
        </linearGradient>
        <linearGradient x1="50.002554%" y1="100%" x2="50.002554%" y2="-0.0063934531%" id="linearGradient-2">
            <stop stop-color="#808080" stop-opacity="0.25" offset="0%"></stop>
            <stop stop-color="#808080" stop-opacity="0.12" offset="54%"></stop>
            <stop stop-color="#808080" stop-opacity="0.1" offset="100%"></stop>
        </linearGradient>
        <linearGradient x1="49.9985323%" y1="100%" x2="49.9985323%" y2="0.00663724156%" id="linearGradient-3">
            <stop stop-color="#808080" stop-opacity="0.25" offset="0%"></stop>
            <stop stop-color="#808080" stop-opacity="0.12" offset="54%"></stop>
            <stop stop-color="#808080" stop-opacity="0.1" offset="100%"></stop>
        </linearGradient>
        <linearGradient x1="49.9869589%" y1="100%" x2="49.9869589%" y2="-0.0133994372%" id="linearGradient-4">
            <stop stop-color="#808080" stop-opacity="0.25" offset="0%"></stop>
            <stop stop-color="#808080" stop-opacity="0.12" offset="54%"></stop>
            <stop stop-color="#808080" stop-opacity="0.1" offset="100%"></stop>
        </linearGradient>
        <linearGradient x1="94.2456963%" y1="69.9720198%" x2="4.52906957%" y2="30.5653727%" id="linearGradient-5">
            <stop stop-color="#808080" stop-opacity="0.25" offset="0%"></stop>
            <stop stop-color="#808080" stop-opacity="0.12" offset="54%"></stop>
            <stop stop-color="#808080" stop-opacity="0.1" offset="100%"></stop>
        </linearGradient>
    </defs>
    <g id="Page-3" stroke="none" stroke-width="1" fill="none" fill-rule="evenodd">
        <g id="404" transform="translate(-91.000000, -38.000000)">
            <ellipse id="Oval" fill="url(#linearGradient-1)" fill-rule="nonzero" cx="280.5" cy="220" rx="159.5" ry="160"></ellipse>
            <ellipse id="Oval" fill="#3F3D56" fill-rule="nonzero" cx="280.5" cy="220" rx="155.5" ry="156"></ellipse>
            <circle id="Oval" fill="#000000" fill-rule="nonzero" opacity="0.05" cx="229.5" cy="130.5" r="19.5"></circle>
            <circle id="Oval" fill="#000000" fill-rule="nonzero" opacity="0.05" cx="288.5" cy="337.5" r="19.5"></circle>
            <circle id="Oval" fill="#000000" fill-rule="nonzero" opacity="0.05" cx="308.5" cy="198.5" r="39.5"></circle>
            <path d="M343.015115,267 C323.409948,267 302.541205,266.064638 281.208493,264.184068 C233.789853,260.009398 189.589382,251.674829 156.756156,240.721245 C123.68601,229.679049 106.015694,217.204271 107.042349,205.595934 C107.560612,199.717921 112.753119,194.470047 122.466857,190 L122.960442,191.107666 C113.671186,195.380794 108.720535,200.288984 108.241759,205.704239 C107.762982,211.119494 111.869603,216.948277 120.457969,222.845982 C128.89826,228.640304 141.232931,234.262323 157.126344,239.584042 C189.875661,250.513011 233.972479,258.822965 281.302274,262.987789 C328.63207,267.152612 373.508751,266.675085 407.659847,261.638898 C424.234407,259.177418 437.368684,255.810114 446.697427,251.581293 C456.193988,247.278627 461.253227,242.316284 461.736939,236.837031 C462.289754,230.599642 456.638214,223.761652 445.3993,217.066428 L446.026152,216.017838 C457.872174,223.072438 463.563201,230.112269 462.956092,236.945336 C461.929437,248.558596 442.353885,257.754683 407.842473,262.8401 C389.05172,265.60188 366.953952,266.995077 343.015115,267 Z" id="Path" fill="url(#linearGradient-2)" fill-rule="nonzero"></path>
            <path d="M445.363033,215.038615 C456.547208,221.734541 462.55544,228.691988 461.959541,235.432323 C459.896059,258.855728 378.996701,270.836353 281.264445,262.191355 C183.53219,253.546357 105.976757,227.552151 108.04024,204.128746 C108.532718,198.340743 113.876104,193.273155 123.075593,189" id="Path" stroke="#BDBDBD" stroke-width="3" opacity="0.5"></path>
            <path d="M300.516243,290 C286.388561,283.898185 271.969638,277.089271 257.66425,269.756214 C215.276269,248.038894 177.439554,223.666246 151.124155,201.118209 C124.606369,178.402051 112.936963,160.150997 118.258291,149.72253 C120.953509,144.441542 127.740917,141.509309 138.423064,141 L138.482299,142.221352 C128.264165,142.715827 121.827234,145.415657 119.344276,150.276342 C116.861319,155.137026 118.475488,162.109116 124.221338,170.826702 C129.863525,179.391 139.183253,189.2706 151.918899,200.178708 C178.160253,222.677297 215.913051,246.995553 258.217115,268.66837 C272.502758,275.986593 286.892064,282.785617 301,288.877543 L300.516243,290 Z" id="Path" fill="url(#linearGradient-3)" fill-rule="nonzero"></path>
            <path d="M302,289 C288.145319,283.005151 273.792482,276.2331 259.217693,268.753152 C171.734434,223.848714 109.494414,170.414858 120.197389,149.41556 C122.841074,144.227615 129.691964,141.495033 139.832663,141" id="Path" stroke="#BDBDBD" stroke-width="3"></path>
            <path d="M414.432894,325 C401.584046,325 383.462229,320.785877 359,312.327884 L359.400291,311.167761 C406.081143,327.300415 429.174475,327.954844 436.616923,313.354147 C439.478263,307.741927 436.809656,299.229398 428.902673,288.738711 L429.891045,288 C438.223029,299.04596 440.857043,307.766716 437.718959,313.914378 C433.938432,321.29653 426.486101,324.995042 414.432894,325 Z" id="Path" fill="url(#linearGradient-4)" fill-rule="nonzero"></path>
            <path d="M429.038774,287 C436.9288,297.448413 439.88756,306.188435 436.795656,312.254457 C429.699564,326.184023 408.884689,327.605205 359,310.372752" id="Path" stroke="#BDBDBD" stroke-width="3"></path>
            <g id="Group" opacity="0.5" transform="translate(134.000000, 365.000000)" fill="#47E6B1" fill-rule="nonzero">
                <rect id="Rectangle" x="4.19" y="0.331578947" width="1.61" height="8.63526316"></rect>
                <polygon id="Rectangle" transform="translate(4.992500, 4.651579) rotate(90.000000) translate(-4.992500, -4.651579) " points="4.22986842 0.0940789474 5.75513158 0.0940789474 5.75513158 9.20907895 4.22986842 9.20907895"></polygon>
            </g>
            <g id="Group" opacity="0.5" transform="translate(457.000000, 40.000000)" fill="#47E6B1" fill-rule="nonzero">
                <rect id="Rectangle" x="3.58578947" y="0.104210526" width="1.52526316" height="8.63526316"></rect>
                <polygon id="Rectangle" transform="translate(4.346053, 4.424211) rotate(90.000000) translate(-4.346053, -4.424211) " points="3.58342105 0.106578947 5.10868421 0.106578947 5.10868421 8.74184211 3.58342105 8.74184211"></polygon>
            </g>
            <g id="Group" opacity="0.5" transform="translate(491.000000, 285.000000)" fill="#47E6B1" fill-rule="nonzero">
                <rect id="Rectangle" x="3.92210526" y="0.415" width="1.52526316" height="9.115"></rect>
                <polygon id="Rectangle" transform="translate(4.682368, 4.975000) rotate(90.000000) translate(-4.682368, -4.975000) " points="3.87736842 0.657368421 5.48736842 0.657368421 5.48736842 9.29263158 3.87736842 9.29263158"></polygon>
            </g>
            <g id="Group" opacity="0.5" transform="translate(139.000000, 61.000000)" fill="#47E6B1" fill-rule="nonzero">
                <rect id="Rectangle" x="3.83684211" y="0.09" width="1.52526316" height="8.63526316"></rect>
                <polygon id="Rectangle" transform="translate(4.601842, 4.410000) rotate(90.000000) translate(-4.601842, -4.410000) " points="3.83921053 0.0923684211 5.36447368 0.0923684211 5.36447368 8.72763158 3.83921053 8.72763158"></polygon>
            </g>
            <path d="M189.4466,395.558932 C188.544929,395.167309 188.080211,394.161829 188.36618,393.221296 C188.389449,393.151281 188.404286,393.078741 188.410379,393.005212 L188.410379,393.005212 C188.42019,392.585588 188.162264,392.206103 187.76848,392.060791 C187.374697,391.91548 186.932092,392.036459 186.666974,392.361871 L186.666974,392.361871 C186.623498,392.421208 186.587229,392.485502 186.558932,392.5534 C186.167309,393.455071 185.161829,393.919789 184.221296,393.63382 C184.151281,393.610551 184.078741,393.595714 184.005212,393.589621 L184.005212,393.589621 C183.585588,393.57981 183.206103,393.837736 183.060791,394.23152 C182.91548,394.625303 183.036459,395.067908 183.361871,395.333026 L183.361871,395.333026 C183.421208,395.376502 183.485502,395.412771 183.5534,395.441068 C184.455071,395.832691 184.919789,396.838171 184.63382,397.778704 C184.610551,397.848719 184.595714,397.921259 184.589621,397.994788 L184.589621,397.994788 C184.57981,398.414412 184.837736,398.793897 185.23152,398.939209 C185.625303,399.08452 186.067908,398.963541 186.333026,398.638129 L186.333026,398.638129 C186.376502,398.578792 186.412771,398.514498 186.441068,398.4466 C186.832691,397.544929 187.838171,397.080211 188.778704,397.36618 C188.848719,397.389449 188.921259,397.404286 188.994788,397.410379 L188.994788,397.410379 C189.414412,397.42019 189.793897,397.162264 189.939209,396.76848 C190.08452,396.374697 189.963541,395.932092 189.638129,395.666974 L189.638129,395.666974 C189.578792,395.623498 189.514498,395.587229 189.4466,395.558932 L189.4466,395.558932 Z" id="Path" fill="#4D8AF0" fill-rule="nonzero" opacity="0.5"></path>
            <path d="M286.4466,402.558932 C285.544929,402.167309 285.080211,401.161829 285.36618,400.221296 C285.389449,400.151281 285.404286,400.078741 285.410379,400.005212 L285.410379,400.005212 C285.42019,399.585588 285.162264,399.206103 284.76848,399.060791 C284.374697,398.91548 283.932092,399.036459 283.666974,399.361871 L283.666974,399.361871 C283.623498,399.421208 283.587229,399.485502 283.558932,399.5534 C283.167309,400.455071 282.161829,400.919789 281.221296,400.63382 C281.151281,400.610551 281.078741,400.595714 281.005212,400.589621 L281.005212,400.589621 C280.585588,400.57981 280.206103,400.837736 280.060791,401.23152 C279.91548,401.625303 280.036459,402.067908 280.361871,402.333026 L280.361871,402.333026 C280.421208,402.376502 280.485502,402.412771 280.5534,402.441068 C281.455071,402.832691 281.919789,403.838171 281.63382,404.778704 C281.610551,404.848719 281.595714,404.921259 281.589621,404.994788 L281.589621,404.994788 C281.57981,405.414412 281.837736,405.793897 282.23152,405.939209 C282.625303,406.08452 283.067908,405.963541 283.333026,405.638129 L283.333026,405.638129 C283.376502,405.578792 283.412771,405.514498 283.441068,405.4466 C283.832691,404.544929 284.838171,404.080211 285.778704,404.36618 C285.848719,404.389449 285.921259,404.404286 285.994788,404.410379 L285.994788,404.410379 C286.414412,404.42019 286.793897,404.162264 286.939209,403.76848 C287.08452,403.374697 286.963541,402.932092 286.638129,402.666974 L286.638129,402.666974 C286.578792,402.623498 286.514498,402.587229 286.4466,402.558932 Z" id="Path" fill="#4D8AF0" fill-rule="nonzero" opacity="0.5"></path>
            <path d="M478.4466,146.558932 C477.544929,146.167309 477.080211,145.161829 477.36618,144.221296 C477.389449,144.151281 477.404286,144.078741 477.410379,144.005212 L477.410379,144.005212 C477.42019,143.585588 477.162264,143.206103 476.76848,143.060791 C476.374697,142.91548 475.932092,143.036459 475.666974,143.361871 L475.666974,143.361871 C475.623498,143.421208 475.587229,143.485502 475.558932,143.5534 C475.167309,144.455071 474.161829,144.919789 473.221296,144.63382 C473.151281,144.610551 473.078741,144.595714 473.005212,144.589621 L473.005212,144.589621 C472.585588,144.57981 472.206103,144.837736 472.060791,145.23152 C471.91548,145.625303 472.036459,146.067908 472.361871,146.333026 L472.361871,146.333026 C472.421208,146.376502 472.485502,146.412771 472.5534,146.441068 C473.455071,146.832691 473.919789,147.838171 473.63382,148.778704 C473.610551,148.848719 473.595714,148.921259 473.589621,148.994788 L473.589621,148.994788 C473.57981,149.414412 473.837736,149.793897 474.23152,149.939209 C474.625303,150.08452 475.067908,149.963541 475.333026,149.638129 L475.333026,149.638129 C475.376502,149.578792 475.412771,149.514498 475.441068,149.4466 C475.832691,148.544929 476.838171,148.080211 477.778704,148.36618 C477.848719,148.389449 477.921259,148.404286 477.994788,148.410379 L477.994788,148.410379 C478.414412,148.42019 478.793897,148.162264 478.939209,147.76848 C479.08452,147.374697 478.963541,146.932092 478.638129,146.666974 L478.638129,146.666974 C478.578792,146.623498 478.514498,146.587229 478.4466,146.558932 L478.4466,146.558932 Z" id="Path" fill="#4D8AF0" fill-rule="nonzero" opacity="0.5"></path>
            <path d="M101.4466,286.558932 C100.544929,286.167309 100.080211,285.161829 100.36618,284.221296 C100.389449,284.151281 100.404286,284.078741 100.410379,284.005212 L100.410379,284.005212 C100.42019,283.585588 100.162264,283.206103 99.7684801,283.060791 C99.3746966,282.91548 98.9320921,283.036459 98.666974,283.361871 L98.666974,283.361871 C98.6234978,283.421208 98.5872293,283.485502 98.558932,283.5534 C98.1673085,284.455071 97.1618285,284.919789 96.2212963,284.63382 C96.151281,284.610551 96.078741,284.595714 96.0052123,284.589621 L96.0052123,284.589621 C95.5855879,284.57981 95.206103,284.837736 95.0607913,285.23152 C94.9154797,285.625303 95.0364589,286.067908 95.3618714,286.333026 L95.3618714,286.333026 C95.4212076,286.376502 95.4855017,286.412771 95.5534004,286.441068 C96.455071,286.832691 96.9197886,287.838171 96.6338202,288.778704 C96.6105514,288.848719 96.5957137,288.921259 96.5896212,288.994788 L96.5896212,288.994788 C96.5798103,289.414412 96.8377364,289.793897 97.2315199,289.939209 C97.6253034,290.08452 98.0679079,289.963541 98.333026,289.638129 L98.333026,289.638129 C98.3765022,289.578792 98.4127707,289.514498 98.441068,289.4466 C98.8326915,288.544929 99.8381715,288.080211 100.778704,288.36618 C100.848719,288.389449 100.921259,288.404286 100.994788,288.410379 L100.994788,288.410379 C101.414412,288.42019 101.793897,288.162264 101.939209,287.76848 C102.08452,287.374697 101.963541,286.932092 101.638129,286.666974 L101.638129,286.666974 C101.578792,286.623498 101.514498,286.587229 101.4466,286.558932 L101.4466,286.558932 Z" id="Path" fill="#4D8AF0" fill-rule="nonzero" opacity="0.5"></path>
            <circle id="Oval" fill="#F55F44" fill-rule="nonzero" opacity="0.5" cx="94" cy="156" r="3"></circle>
            <circle id="Oval" fill="#4D8AF0" fill-rule="nonzero" opacity="0.5" cx="353" cy="49" r="3"></circle>
            <circle id="Oval" fill="#47E6B1" fill-rule="nonzero" opacity="0.5" cx="178" cy="41" r="3"></circle>
            <circle id="Oval" fill="#F55F44" fill-rule="nonzero" opacity="0.5" cx="413" cy="380" r="3"></circle>
            <path d="M338.79881,279.928147 C336.969423,278.965281 334.717136,279.68849 333.766725,281.543949 L333.384541,282.289703 L332.512378,281.827335 L324.716811,277.720714 L323.021483,276.825809 C322.784494,276.701275 322.518562,276.644558 322.252216,276.661743 C314.789835,274.175895 308.80229,278.963638 304.941255,286.505701 L304.941255,286.505701 C303.566607,289.086048 302.655731,291.894133 302.25127,294.79849 L302.163074,294.753745 C301.731892,297.861054 302.133675,300.774468 303.633011,303.240429 L303.760406,302.986873 C304.510433,304.238806 305.476388,305.343558 306.612084,306.248305 C306.689027,306.574187 306.901841,306.850006 307.195159,307.004003 L317.866903,312.626991 L317.053538,314.212962 C316.104598,316.069196 316.817347,318.354535 318.64597,319.318894 L318.64597,319.318894 L321.179162,314.347198 L334.34,321.282714 L335.202363,319.60228 L336.064726,317.921847 L337.353371,315.401197 L337.39747,315.401197 L334.408597,321.237968 L340.704828,324.598835 C348.368101,328.635852 354.223351,323.450373 358.476369,315.416113 L358.476369,315.371367 L358.736058,314.874198 L358.736058,314.874198 L358.736058,314.874198 L358.736058,314.829452 L358.736058,314.829452 L358.736058,314.829452 L358.956549,314.386971 L358.956549,314.386971 C363.023375,306.208532 363.85634,298.373139 356.153869,294.321207 L349.877237,291.039888 L346.413085,297.811337 L346.368986,297.811337 L348.137811,294.356009 L348.951176,292.770038 L349.857637,290.995142 L336.696799,284.034768 L338.79881,279.928147 L338.79881,279.928147 Z" id="Shape" fill="url(#linearGradient-5)" fill-rule="nonzero"></path>
            <polygon id="Rectangle" fill="#4F617D" fill-rule="nonzero" transform="translate(334.960608, 302.263716) rotate(-62.550000) translate(-334.960608, -302.263716) " points="320.814748 295.204763 349.11609 295.185521 349.106469 309.322669 320.805126 309.341911"></polygon>
            <path d="M356.910567,313.527472 L356.910567,313.482587 C352.889709,321.362465 347.301646,326.574156 339.930889,322.679102 L334,319.542113 L348.584794,291 L354.510785,294.136989 C361.881543,298.03703 360.931425,305.647595 356.910567,313.527472 Z" id="Path" fill="#FF656A" fill-rule="nonzero"></path>
            <g id="Group"></g>
            <path d="M352.183099,321 C353.950172,318.961632 355.429433,316.650571 356.57277,314.141984 C357.630677,311.999424 358.445683,309.72575 359,307.370584 L356.57277,306 L350,319.756793 L352.183099,321 Z" id="Path" fill="#4A5C81" fill-rule="nonzero"></path>
            <path d="M332.916728,305.214409 L351.491336,305.20178 L351.490983,305.719715 C351.490599,306.284873 351.265507,306.827036 350.865226,307.226935 C350.464944,307.626834 349.922262,307.851711 349.356564,307.852096 L335.03802,307.861832 C333.860013,307.862632 332.9057,306.909231 332.9065,305.732351 L332.906853,305.214416 L332.916728,305.214409 Z" id="Path" fill="#4A5C81" fill-rule="nonzero" transform="translate(342.198918, 306.531806) rotate(-62.550000) translate(-342.198918, -306.531806) "></path>
            <path d="M322.475902,296.137915 L323.167142,296.137445 L323.146698,326.177651 L319.611498,326.180054 L319.630006,298.986023 C319.629208,298.231625 319.928752,297.507473 320.462604,296.973207 C320.996455,296.438941 321.72078,296.138427 322.475902,296.137915 L322.475902,296.137915 Z" id="Path" fill="#FF6469" fill-rule="nonzero" transform="translate(321.389320, 311.158750) rotate(-62.550000) translate(-321.389320, -311.158750) "></path>
            <path d="M332.70869,270.923998 L333.39993,270.923528 C334.970605,270.92246 336.243024,272.193662 336.241956,273.762836 L336.223445,300.9618 L332.688246,300.964204 L332.70869,270.923998 Z" id="Path" fill="#FF6469" fill-rule="nonzero" transform="translate(334.465101, 285.943866) rotate(-62.550000) translate(-334.465101, -285.943866) "></path>
            <path d="M332,282.489648 L317.234329,311 L309.781938,307.129208 C301.569403,302.849915 301.614118,294.769574 305.688091,286.898465 L305.688091,286.898465 C309.767033,279.027356 316.335074,274.344544 324.567482,278.618855 L332,282.489648 Z" id="Path" fill="#FF656A" fill-rule="nonzero"></path>
            <path d="M305.368574,303 L308,297.271482 L304.14496,295 C303.767789,297.929016 304.109875,300.673724 305.368574,303 Z" id="Path" fill="#FFF6D5" fill-rule="nonzero"></path>
            <path d="M318,277 L315.160243,283 L311,280.62087 C313.068289,278.497391 315.411089,277.172174 318,277 Z" id="Path" fill="#FFF6D5" fill-rule="nonzero"></path>
            <path d="M318.890615,312.861389 L321.359329,312.85971 L321.356925,316.391531 L316.044252,316.395143 L316.044715,315.714429 C316.042604,314.959179 316.341569,314.233758 316.875564,313.698423 C317.409558,313.163089 318.134636,312.861898 318.890615,312.861389 L318.890615,312.861389 Z" id="Path" fill="#FF6469" fill-rule="nonzero" transform="translate(318.701790, 314.627426) rotate(-62.550000) translate(-318.701790, -314.627426) "></path>
            <path d="M332.673093,280.694259 L337.980829,280.690651 L337.978426,284.222471 L335.509711,284.22415 C333.939036,284.225218 332.666618,282.954016 332.667685,281.384842 L332.668156,280.694263 L332.673093,280.694259 Z" id="Path" fill="#FF6469" fill-rule="nonzero" transform="translate(335.324257, 282.457401) rotate(117.450000) translate(-335.324257, -282.457401) "></path>
            <path d="M334,286.412127 L321.525557,310 L310.696977,300.489953 C308.964168,298.96723 308.501639,296.485366 309.572973,294.458711 L314.209492,285.697642 C315.285303,283.662469 317.632668,282.606398 319.904782,283.13535 L334,286.412127 Z" id="Path" fill="#53678B" fill-rule="nonzero"></path>
            <path d="M322.272076,309 C317.199294,306.331391 315.49072,299.481799 318.455458,293.695747 C321.420196,287.909695 327.932031,285.402081 333,288.060933" id="Path" fill="#658BC8" fill-rule="nonzero"></path>
            <polygon id="Path" fill="#FF656A" fill-rule="nonzero" points="335 287.235798 322.422139 311 320 309.764202 321.706161 308.478573 332.039607 288.959936 332.577861 286"></polygon>
            <polygon id="Path" fill="#000000" fill-rule="nonzero" opacity="0.05" points="335 287.235798 322.422139 311 320 309.764202 321.706161 308.478573 332.039607 288.959936 332.577861 286"></polygon>
            <polygon id="Rectangle" fill="#53678B" fill-rule="nonzero" transform="translate(329.505249, 301.367661) rotate(-62.550000) translate(-329.505249, -301.367661) " points="327.738851 299.602952 331.27405 299.600549 331.271647 303.132369 327.736448 303.134773"></polygon>
            <ellipse id="Oval" fill="#53678B" fill-rule="nonzero" transform="translate(331.080010, 302.179843) rotate(-62.550000) translate(-331.080010, -302.179843) " cx="331.08001" cy="302.179843" rx="3.53519917" ry="1"></ellipse>
            <path d="M339,318.940865 C340.443862,319.890668 342.230236,320.220936 343.935116,319.853275 C345.639996,319.485615 347.11137,318.45281 348,317" id="Path" fill="#000000" fill-rule="nonzero" opacity="0.05"></path>
            <path d="M351,297 C352.598138,297.580583 353.875211,298.768955 354.528934,300.283827 C355.182658,301.798699 355.154924,303.505418 354.452297,305" id="Path" fill="#000000" fill-rule="nonzero" opacity="0.05"></path>
            <path d="M312.023252,298 C312.023252,298 311.294254,291.652135 318,287" id="Path" fill="#000000" fill-rule="nonzero" opacity="0.05"></path>
            <path d="M315.023252,299 C315.023252,299 314.294254,292.652135 321,288" id="Path" fill="#000000" fill-rule="nonzero" opacity="0.05"></path>
            <ellipse id="Oval" fill="#4A77BE" fill-rule="nonzero" transform="translate(321.609204, 301.242628) rotate(-62.550000) translate(-321.609204, -301.242628) " cx="321.609204" cy="301.242628" rx="2.65139997" ry="2.64886605"></ellipse>
            <ellipse id="Oval" fill="#4A77BE" fill-rule="nonzero" transform="translate(325.304548, 292.200402) rotate(-62.550000) translate(-325.304548, -292.200402) " cx="325.304548" cy="292.200402" rx="1.76759998" ry="1.7659107"></ellipse>
            <path d="M334.614612,293.759713 L335.133295,293.759897 C335.722584,293.760088 336.200454,294.237228 336.200646,294.825617 L336.202535,300.621047 C336.202629,300.910142 336.087702,301.187358 335.883034,301.391713 C335.678367,301.596067 335.400725,301.710819 335.111188,301.710725 L333.545261,301.710215 L333.543009,294.805022 C333.55362,294.222431 334.031032,293.75674 334.614612,293.759713 Z" id="Path" fill="#CDEFFF" fill-rule="nonzero" transform="translate(334.872772, 297.735219) rotate(-101.534621) translate(-334.872772, -297.735219) "></path>
            <path d="M335.366308,295.231421 L338.01847,295.232278 L338.019494,298.393235 C338.019875,299.569777 337.064946,300.523243 335.886601,300.522862 L335.368021,300.522695 L335.366308,295.231421 Z" id="Path" fill="#000000" fill-rule="nonzero" opacity="0.05" transform="translate(336.692901, 297.877142) rotate(-101.450000) translate(-336.692901, -297.877142) "></path>
            <path d="M331.37835,308.239146 L336.014596,308.235994 L336.010863,313.721168 L331.374617,313.724321 C330.161162,313.725145 329.17813,312.743054 329.178955,311.530758 L329.179684,310.46036 C329.173487,309.873938 329.402442,309.309104 329.815489,308.891821 C330.228537,308.474538 330.791326,308.239508 331.37835,308.239146 Z" id="Path" fill="#CDEFFF" fill-rule="nonzero" transform="translate(332.596776, 310.980157) rotate(-62.550000) translate(-332.596776, -310.980157) "></path>
            <path d="M334,312.720032 L333.166473,314.522467 C332.263097,316.037829 330.074505,316.451966 328.188591,315.463686 L326,314.315399 L327.187427,312 L334,312.720032 Z" id="Path" fill="#CDEFFF" fill-rule="nonzero"></path>
            <path d="M324.059577,309.348247 L324.592819,309.347884 C325.200911,309.347471 325.693531,309.83962 325.693118,310.44713 L325.690146,314.812579 L322.954811,314.814439 L322.957782,310.44899 C322.958195,309.84148 323.451486,309.348661 324.059577,309.348247 Z" id="Path" fill="#CDEFFF" fill-rule="nonzero" transform="translate(324.323964, 312.081162) rotate(-62.550000) translate(-324.323964, -312.081162) "></path>
            <path d="M334.104167,309.503572 C334.952532,309.954142 335.923704,310.103749 336.864583,309.928807 L337,309.65772 L332,307 C332.356878,308.08134 333.111303,308.978967 334.104167,309.503572 Z" id="Path" fill="#000000" fill-rule="nonzero" opacity="0.05"></path>
            <path d="M337.079781,297.11782 L341.711089,297.114672 L341.70737,302.580115 L337.071124,302.583267 C336.488402,302.583663 335.929704,302.352779 335.517938,301.941406 C335.106171,301.530033 334.875066,300.97187 334.875461,300.389705 L334.87619,299.319306 C334.876586,298.737141 335.108452,298.178663 335.520779,297.76673 C335.933105,297.354797 336.492118,297.123153 337.07484,297.122757 L337.079781,297.11782 Z" id="Path" fill="#CDEFFF" fill-rule="nonzero" transform="translate(338.293275, 299.848969) rotate(117.450000) translate(-338.293275, -299.848969) "></path>
            <path d="M338.118661,301.529425 C338.947114,302.00486 339.609121,302.773213 340,303.712986 L339.868154,304 L335,301.186133 C336.040516,300.849584 337.157991,300.972592 338.118661,301.529425 Z" id="Path" fill="#000000" fill-rule="nonzero" opacity="0.05"></path>
            <ellipse id="Oval" fill="#CDEFFF" fill-rule="nonzero" transform="translate(335.721928, 305.427130) rotate(-62.550000) translate(-335.721928, -305.427130) " cx="335.721928" cy="305.42713" rx="4.10300442" ry="4.09908321"></ellipse>
            <ellipse id="Oval" fill="#CDEFFF" fill-rule="nonzero" transform="translate(335.517966, 305.488261) rotate(-62.550000) translate(-335.517966, -305.488261) " cx="335.517966" cy="305.488261" rx="4.10300442" ry="4.09908321"></ellipse>
            <path d="M331.507097,304.097179 C330.765332,305.335616 330.841726,306.823792 331.707443,308 C333.310674,307.935849 334.753191,307.134997 335.493174,305.898252 C336.233157,304.661507 336.15857,303.176115 335.297429,302 C333.693298,302.060884 332.248427,302.860327 331.507097,304.097179 Z" id="Path" fill="#658BC8" fill-rule="nonzero"></path>
        </g>
    </g>
</svg>