<?xml version="1.0" encoding="UTF-8"?>
<svg width="500px" height="431px" viewBox="0 0 500 431" version="1.1" xmlns="http://www.w3.org/2000/svg" xmlns:xlink="http://www.w3.org/1999/xlink">
    <!-- Generator: Sketch 55.2 (78181) - https://sketchapp.com -->
    <title>500</title>
    <desc>Created with Sketch.</desc>
    <defs>
        <linearGradient x1="50%" y1="100.004407%" x2="50%" y2="-3.13124773e-15%" id="linearGradient-1">
            <stop stop-color="#808080" stop-opacity="0.25" offset="0%"></stop>
            <stop stop-color="#808080" stop-opacity="0.12" offset="54%"></stop>
            <stop stop-color="#808080" stop-opacity="0.1" offset="100%"></stop>
        </linearGradient>
        <linearGradient x1="50%" y1="100%" x2="50%" y2="-9.17895279e-15%" id="linearGradient-2">
            <stop stop-color="#808080" stop-opacity="0.25" offset="0%"></stop>
            <stop stop-color="#808080" stop-opacity="0.12" offset="54%"></stop>
            <stop stop-color="#808080" stop-opacity="0.1" offset="100%"></stop>
        </linearGradient>
    </defs>
    <g id="Page-3" stroke="none" stroke-width="1" fill="none" fill-rule="evenodd">
        <g id="500" fill-rule="nonzero">
            <g id="undraw_Taken_if77" transform="translate(0.500000, 0.000000)">
                <g id="Group" opacity="0.8" transform="translate(169.276458, 10.671252)" fill="url(#linearGradient-1)">
                    <ellipse id="Oval" cx="87.3110151" cy="67.7683769" rx="86.9902808" ry="67.2644567"></ellipse>
                </g>
                <ellipse id="Oval" fill="#3B3951" cx="256.587473" cy="78.4396286" rx="85.0599352" ry="65.7704814"></ellipse>
                <path d="M185.277538,85.749436 C185.277538,49.4256809 223.355832,19.9789546 270.331533,19.9789546 C284.916098,19.8988291 299.355264,22.8737893 312.715983,28.7115956 C297.766199,18.6331912 278.207343,12.5090784 256.801296,12.5090784 C209.825594,12.5090784 171.741361,41.9558047 171.741361,78.2795598 C171.741361,102.669298 188.912527,123.958446 214.422786,135.3174 C196.562635,123.258886 185.277538,105.526823 185.277538,85.749436 Z" id="Path" fill="#FFFFFF" opacity="0.1"></path>
                <polygon id="Path" fill="#3F3D56" opacity="0.2" points="256.587473 104.874691 350.883369 267.895846 445.179266 430.911073 256.587473 430.911073 67.9956803 430.911073 162.291577 267.895846"></polygon>
                <ellipse id="Oval" fill="#FFFFFF" cx="328.176566" cy="289.024924" rx="5.79697624" ry="5.78618982"></ellipse>
                <ellipse id="Oval" fill="#FFFFFF" cx="346.541577" cy="279.924718" rx="2.89848812" ry="2.89309491"></ellipse>
                <path d="M338.267819,58.9468088 C339.372019,63.2066348 339.928864,67.5893557 339.924946,71.9894498 C339.924946,108.313205 301.846652,137.759931 254.87095,137.759931 C216.424406,137.736217 183.941145,118.018116 173.434125,90.960564 C181.238661,121.059422 215.604752,143.723975 256.830994,143.723975 C303.806695,143.723975 341.890929,114.277249 341.890929,77.9534938 C341.878826,71.4480808 340.650074,65.002096 338.267819,58.9468088 L338.267819,58.9468088 Z" id="Path" fill="#000000" opacity="0.1"></path>
                <g id="Group" opacity="0.8" transform="translate(80.183585, 61.063274)" fill="url(#linearGradient-2)">
                    <ellipse id="Oval" cx="176.403888" cy="46.0523796" rx="175.916847" ry="45.8923109"></ellipse>
                </g>
                <g id="undraw_Astronaut_xko2-Copy" opacity="0.504278274" transform="translate(248.972709, 81.571419) rotate(20.000000) translate(-248.972709, -81.571419) translate(207.472709, 32.071419)">
                    <path d="M82.2588613,46.84363 C82.1999792,49.0209999 81.4983002,51.1018726 80.661683,53.1233625 C80.5390119,53.4202766 80.4138873,53.7147164 80.2887627,54.0066819 C80.1587313,54.303596 80.0286999,54.60051 79.8986685,54.8974241 C79.2166169,56.4512744 78.5198448,58.0273932 77.4452456,59.3362894 C77.38391,59.4105179 77.3225744,59.4847464 77.2587854,59.5564883 C77.0043016,59.8449225 76.728747,60.1137223 76.4344354,60.3606305 C75.5214191,61.1725262 74.3724145,61.6646798 73.1591158,61.7635495 C70.8185503,61.8872637 68.7895549,60.2418649 67.0181983,58.6904889 C64.9058012,56.8446814 62.7934041,54.9963954 60.6810069,53.1456311 C59.9547938,52.5122144 58.1932484,50.9707356 58.0386705,50.8346499 L58.0386705,81.0852447 L57.496464,81.0852447 L57.8203158,86.2094866 L58.4974606,96.933033 C53.1756848,97.9162932 47.7765528,98.4115227 42.366205,98.4126547 L41.9196821,86.2268066 L41.7921041,82.7553863 L41.7307685,81.0852447 L41.2253634,81.0852447 L41.1812018,81.9933069 L40.9824745,86.2268066 L40.4059201,98.3903862 C35.0114657,98.2804671 29.6378895,97.6792465 24.3507207,96.5940561 L24.9910641,86.2243323 L25.3100091,81.0852447 L24.9935175,81.0852447 L24.9935175,50.3447417 C24.0558658,51.5924039 23.0116215,52.7548135 21.8727636,53.8186363 C19.6499624,55.9217776 17.11803,57.7502734 14.6278058,59.5317578 C13.1164973,60.6130199 11.3966478,61.7289219 9.6375436,62.156973 C9.36618513,62.2235874 9.09082179,62.272351 8.8131935,62.3029557 C8.03968014,62.4009619 7.25416016,62.3153874 6.51924309,62.0530531 C6.26436271,61.9614321 6.01805311,61.8471662 5.78321623,61.7116019 C5.65318481,61.6398477 5.53051367,61.5631449 5.41029595,61.4814935 C3.5726822,60.2171344 2.60603358,57.7923362 1.8479259,55.5877493 C0.930345738,52.9155227 -0.00195496204,50.1171076 0.388139278,47.3162183 C0.626121299,45.6213338 1.32780025,44.0650092 2.20612564,42.5878618 C2.80230741,41.5857768 3.47945213,40.6208061 4.14923658,39.6756296 C4.47063498,39.2228357 4.85827579,38.7329275 5.37104118,38.5943676 L5.3734946,38.5943676 L5.41029595,38.5869447 C5.4722324,38.5716604 5.53550697,38.5625443 5.59920951,38.5597276 C5.66058777,38.5575956 5.72203786,38.5592482 5.78321623,38.5646762 C6.29598161,38.6265333 6.73024973,39.0397387 7.10071904,39.4232527 C7.67235676,40.0170808 8.24318649,40.6100842 8.81320822,41.2022628 C9.08799159,41.4868054 9.36277495,41.7713481 9.63755832,42.0558907 C9.68171993,42.1029021 9.72588154,42.1499135 9.77249658,42.1969249 C10.1356032,42.5730161 10.4962563,42.9491072 10.8593629,43.3251984 C11.5684021,42.0905307 12.2823482,40.8484402 13.035549,39.6335668 C14.5664849,37.1592829 16.2593467,34.7988161 18.3864791,32.836709 C19.4431933,31.8564698 20.6138368,31.009032 21.872793,30.3129394 C22.9652272,29.7048754 24.1302221,29.2400704 25.3394796,28.9298147 C26.7330238,28.5784664 27.7708217,28.417638 28.4823143,28.6700149 C29.0416947,28.8679576 29.3998945,29.3257001 29.5691806,30.1496367 C29.5722252,30.1575354 29.5738855,30.1659075 29.5740875,30.1743795 C29.6537098,30.6109562 29.691503,31.0542452 29.6869449,31.4981214 C29.6869449,31.7727669 29.6869449,32.0474124 29.6844915,32.3245322 L52.9968864,32.3245322 C52.9748056,31.6119385 52.9551782,30.8300648 52.9919796,30.1743795 C52.9993399,30.0160377 53.011607,29.865094 53.0263152,29.7240599 C53.0332991,29.3983808 53.1246466,29.0802109 53.2912849,28.801152 C53.5294071,28.5598941 53.8599357,28.4352307 54.196598,28.4597008 C55.2711972,28.4448551 56.8242139,29.1648717 57.584775,29.4518886 C58.652201,29.856331 59.6873078,30.3427161 60.6809947,30.9067676 C65.474983,33.6136341 69.3219501,38.0698194 71.0884146,43.3326212 C71.2641451,42.6805584 71.5733752,42.0728541 71.9961811,41.5486625 C72.2803033,41.1907843 72.6074877,40.8699606 72.97019,40.593589 C73.5537945,40.1459048 74.2141406,39.8104082 74.9182077,39.6038754 C75.4102497,39.454505 75.920614,39.3753839 76.4344231,39.3688184 C76.7102397,39.3633621 76.9860168,39.3815725 77.2587732,39.4232527 C77.7006362,39.4870213 78.131116,39.6145135 78.5370065,39.8018181 C79.2000651,40.1131289 79.7954312,40.5537794 80.2887505,41.0983429 C80.4212353,41.2418513 80.5439064,41.3903084 80.6616707,41.543714 C81.4081015,42.553876 81.9059095,43.728414 82.1140971,44.9705971 C82.2280563,45.5880003 82.2765839,46.2158756 82.2588613,46.84363 Z" id="Path" fill="#FFFFFF"></path>
                    <path d="M56.5518149,11.7485474 L56.5518149,11.7485474 C54.7023573,5.25265644 48.9476755,0 42.1310554,0 C35.3144354,0 29.5597781,5.25265644 27.7103205,11.7485474 L27.7103205,11.7485474 C26.0196154,11.7485474 24.6490281,13.1098529 24.6490281,14.7891084 L24.6490281,18.4866658 L27.2678961,18.4866658 C28.3956963,25.5521198 34.6200125,30.2352132 42.1310579,30.2352132 C49.6421033,30.2352132 55.866444,25.5521198 56.9942442,18.4866658 L59.6922246,18.4866658 L59.6922246,14.8676851 C59.6922246,14.0404375 59.3613608,13.2470719 58.7724196,12.66212 C58.1834784,12.077168 57.3847029,11.7485461 56.5518149,11.7485474 L56.5518149,11.7485474 Z" id="Path" fill="#FFFFFF"></path>
                    <ellipse id="Oval" fill="#6C63FF" cx="41.5766739" cy="16.5997249" rx="12.1760259" ry="12.4497937"></ellipse>
                    <path d="M43.3035242,6.84891662 C47.1780436,6.84599177 50.8283944,8.64551781 53.1587473,11.7072801 C51.3341193,7.32882111 47.1145194,4.38880945 42.3320836,4.1637884 C37.5496479,3.93876734 33.0669661,6.46932309 30.8304037,10.6566967 C28.5938414,14.8440704 29.0067987,19.9330013 31.889971,23.7138927 C30.3208767,19.9467519 30.7543582,15.6537277 33.0457056,12.2679686 C35.337053,8.88220945 39.1844543,6.84968124 43.3035242,6.84890678 L43.3035242,6.84891662 Z" id="Path" fill="#000000" opacity="0.2"></path>
                    <ellipse id="Oval" fill="#000000" opacity="0.2" cx="41.2796976" cy="21.3425034" rx="7.12742981" ry="1.18569464"></ellipse>
                </g>
                <path d="M256.587473,62.7410316 C162.636069,62.7410316 86.4676026,82.6073453 86.4676026,107.121582 L426.707343,107.121582 C426.707343,82.6073453 350.538877,62.7410316 256.587473,62.7410316 Z" id="Path" fill="#FFFFFF"></path>
                <path d="M256.587473,151.496204 C350.538877,151.496204 426.707343,131.62989 426.707343,107.121582 L86.4676026,107.121582 C86.4676026,131.62989 162.636069,151.496204 256.587473,151.496204 Z" id="Path" fill="#FFFFFF"></path>
                <path d="M256.587473,151.496204 C350.538877,151.496204 426.707343,131.62989 426.707343,107.121582 L86.4676026,107.121582 C86.4676026,131.62989 162.636069,151.496204 256.587473,151.496204 Z" id="Path" fill="#000000" opacity="0.05"></path>
                <rect id="Rectangle" fill="#000000" opacity="0.05" x="175.394168" y="95.5373453" width="162.386609" height="23.1566162" rx="11.5783081"></rect>
                <path d="M79.5242981,34.2725034 C78.5085669,33.8300741 77.9853174,32.698901 78.3066955,31.6402613 C78.3316281,31.5612768 78.3475674,31.4797403 78.3542117,31.3971939 L78.3542117,31.3971939 C78.3853447,30.915369 78.0954381,30.470437 77.6415604,30.3034581 C77.1876828,30.1364791 76.6778273,30.2871832 76.3882289,30.6739202 L76.3882289,30.6739202 C76.3406698,30.7403468 76.3008179,30.8119467 76.2694384,30.8873453 C75.8282416,31.9031946 74.6930997,32.4263277 73.6322894,32.1026823 C73.5529971,32.0784317 73.4713785,32.0625358 73.3887689,32.0552545 L73.3887689,32.0552545 C72.9060457,32.0241794 72.4602844,32.3135466 72.2929941,32.7665797 C72.1257039,33.2196128 72.2766889,33.7285195 72.6641469,34.0175791 L72.6641469,34.0175791 C72.7297534,34.0680947 72.8016223,34.1099402 72.8779698,34.142077 C73.8937009,34.5845064 74.4169504,35.7156795 74.0955724,36.7743191 C74.0712087,36.8514229 74.0552772,36.9309322 74.0480562,37.011458 L74.0480562,37.011458 C74.0139382,37.4944301 74.3028485,37.9420547 74.7575432,38.1107054 C75.2122379,38.2793561 75.7238956,38.12867 76.0140389,37.7406602 L76.0140389,37.7406602 C76.0628483,37.6728998 76.1027694,37.5991832 76.1328294,37.5213067 C76.5847473,36.5170484 77.7169905,36.007978 78.7699784,36.3356121 C78.8492707,36.3598626 78.9308893,36.3757586 79.0134989,36.3830399 L79.0134989,36.3830399 C79.4962221,36.414115 79.9419835,36.1247478 80.1092737,35.6717147 C80.276564,35.2186816 80.125579,34.7097748 79.738121,34.4207153 L79.738121,34.4207153 C79.6739022,34.3618713 79.6019698,34.3120111 79.5242981,34.2725034 Z" id="Path" fill="#4D8AF0" opacity="0.5"></path>
                <path d="M381.846112,215.683783 C380.841988,215.230703 380.332795,214.102396 380.658207,213.051541 C380.68314,212.972556 380.699079,212.89102 380.705724,212.808473 L380.705724,212.808473 C380.736857,212.326648 380.44695,211.881716 379.993072,211.714737 C379.539195,211.547758 379.029339,211.698462 378.739741,212.085199 L378.739741,212.085199 C378.692182,212.151626 378.65233,212.223226 378.62095,212.298624 C378.179753,213.314474 377.044612,213.837607 375.983801,213.513961 C375.904509,213.489711 375.82289,213.473815 375.740281,213.466534 L375.740281,213.466534 C375.257558,213.435459 374.811796,213.724826 374.644506,214.177859 C374.477216,214.630892 374.628201,215.139799 375.015659,215.428858 L375.015659,215.428858 C375.081265,215.479374 375.153134,215.521219 375.229482,215.553356 C376.233605,216.006436 376.742799,217.134743 376.417387,218.185598 C376.393023,218.262702 376.377091,218.342211 376.36987,218.422737 L376.36987,218.422737 C376.335752,218.905709 376.624663,219.353334 377.079357,219.521985 C377.534052,219.690635 378.04571,219.539949 378.335853,219.151939 L378.335853,219.151939 C378.384663,219.084179 378.424584,219.010462 378.454644,218.932586 C378.906562,217.928328 380.038805,217.419257 381.091793,217.746891 C381.171085,217.771142 381.252704,217.787038 381.335313,217.794319 L381.335313,217.794319 C381.818036,217.825394 382.263798,217.536027 382.431088,217.082994 C382.598378,216.629961 382.447393,216.121054 382.059935,215.831994 L382.059935,215.831994 C381.995717,215.773151 381.923784,215.72329 381.846112,215.683783 L381.846112,215.683783 Z" id="Path" fill="#4D8AF0" opacity="0.5"></path>
                <path d="M48.0448164,299.868102 C47.0290852,299.425672 46.5058358,298.294499 46.8272138,297.23586 C46.8521465,297.156875 46.8680857,297.075339 46.87473,296.992792 L46.87473,296.992792 C46.9058631,296.510967 46.6159564,296.066035 46.1620788,295.899056 C45.7082011,295.732077 45.1983457,295.882782 44.9087473,296.269519 L44.9087473,296.269519 C44.8611881,296.335945 44.8213362,296.407545 44.7899568,296.482944 C44.3487599,297.498793 43.213618,298.021926 42.1528078,297.698281 C42.0735154,297.67403 41.9918968,297.658134 41.9092873,297.650853 L41.9092873,297.650853 C41.4265641,297.619778 40.9808027,297.909145 40.8135125,298.362178 C40.6462222,298.815211 40.7972072,299.324118 41.1846652,299.613177 L41.1846652,299.613177 C41.2502718,299.663693 41.3221407,299.705539 41.3984881,299.737675 C42.4142193,300.180105 42.9374687,301.311278 42.6160907,302.369917 C42.5917271,302.447021 42.5757956,302.526531 42.5685745,302.607056 L42.5685745,302.607056 C42.5344566,303.090028 42.8233668,303.537653 43.2780615,303.706304 C43.7327563,303.874954 44.244414,303.724268 44.5345572,303.336259 L44.5345572,303.336259 C44.5833666,303.268498 44.6232877,303.194782 44.6533477,303.116905 C45.1052657,302.112647 46.2375089,301.603576 47.2904968,301.93121 C47.3697891,301.955461 47.4514077,301.971357 47.5340173,301.978638 L47.5340173,301.978638 C48.0167405,302.009713 48.4625018,301.720346 48.6297921,301.267313 C48.7970823,300.81428 48.6460973,300.305373 48.2586393,300.016314 L48.2586393,300.016314 C48.1944206,299.95747 48.1224881,299.907609 48.0448164,299.868102 Z" id="Path" fill="#4D8AF0" opacity="0.5"></path>
                <path d="M15.3774298,103.63564 C14.373306,103.18256 13.8641121,102.054253 14.1895248,101.003398 C14.2144575,100.924413 14.2303967,100.842876 14.237041,100.76033 L14.237041,100.76033 C14.2681741,100.278505 13.9782674,99.8335732 13.5243898,99.6665942 C13.0705122,99.4996153 12.5606567,99.6503193 12.2710583,100.037056 L12.2710583,100.037056 C12.2234992,100.103483 12.1836473,100.175083 12.1522678,100.250481 C11.7110709,101.266331 10.575929,101.789464 9.51511879,101.465818 C9.43582645,101.441568 9.35420786,101.425672 9.27159827,101.418391 L9.27159827,101.418391 C8.78887509,101.387316 8.34311374,101.676683 8.17582349,102.129716 C8.00853324,102.582749 8.15951824,103.091656 8.54697624,103.380715 L8.54697624,103.380715 C8.61258277,103.431231 8.68445167,103.473076 8.76079914,103.505213 C9.7765303,103.947643 10.2997798,105.078816 9.97840173,106.137455 C9.95403811,106.214559 9.93810661,106.294068 9.93088553,106.374594 L9.93088553,106.374594 C9.89676757,106.857566 10.1856778,107.305191 10.6403726,107.473842 C11.0950673,107.642492 11.606725,107.491806 11.8968683,107.103796 L11.8968683,107.103796 C11.9456776,107.036036 11.9855987,106.962319 12.0156587,106.884443 C12.4675767,105.880185 13.5998199,105.371114 14.6528078,105.698748 C14.7321001,105.722999 14.8137187,105.738895 14.8963283,105.746176 L14.8963283,105.746176 C15.3790515,105.777251 15.8248128,105.487884 15.9921031,105.034851 C16.1593933,104.581818 16.0084083,104.072911 15.6209503,103.783851 L15.6209503,103.783851 C15.5476042,103.722647 15.4655292,103.672694 15.3774298,103.63564 Z" id="Path" fill="#4D8AF0" opacity="0.5"></path>
                <path d="M375.906587,4.03729023 C374.902464,3.58421063 374.39327,2.45590373 374.718683,1.40504814 C374.743615,1.32606363 374.759554,1.24452708 374.766199,1.16198074 L374.766199,1.16198074 C374.797332,0.680155761 374.507425,0.235223835 374.053547,0.0682448639 C373.59967,-0.0987341072 373.089814,0.0519699535 372.800216,0.438707015 L372.800216,0.438707015 C372.752657,0.50513356 372.712805,0.576733497 372.681425,0.65213205 C372.229508,1.65639036 371.097264,2.16546083 370.044276,1.83782669 C369.964984,1.81357615 369.883366,1.7976802 369.800756,1.7903989 L369.800756,1.7903989 C369.271658,1.67961447 368.740916,1.97160605 368.552234,2.47728237 C368.363551,2.98295869 368.573635,3.55034565 369.046436,3.81200825 L369.046436,3.81200825 C369.112043,3.86252385 369.183912,3.90436937 369.260259,3.93650619 C370.264383,4.3895858 370.773577,5.51789269 370.448164,6.56874828 C370.423801,6.64585204 370.407869,6.72536132 370.400648,6.80588721 L370.400648,6.80588721 C370.348965,7.30843257 370.649748,7.78064793 371.127593,7.94715919 C371.605438,8.11367045 372.135308,7.9309066 372.408207,7.50544704 L372.408207,7.50544704 C372.457017,7.43768655 372.496938,7.36396997 372.526998,7.28609354 C372.978916,6.28183523 374.111159,5.77276476 375.164147,6.1003989 C375.243439,6.12464944 375.325058,6.14054538 375.407667,6.14782669 L375.407667,6.14782669 C375.890391,6.17890179 376.336152,5.88953458 376.503442,5.43650147 C376.670732,4.98346836 376.519747,4.47456161 376.132289,4.18550206 L376.132289,4.18550206 C376.064413,4.12574909 375.98843,4.07585343 375.906587,4.03729023 L375.906587,4.03729023 Z" id="Path" fill="#4D8AF0" opacity="0.5"></path>
                <g id="Group" opacity="0.5" transform="translate(61.177106, 152.361761)" fill="#47E6B1">
                    <rect id="Rectangle" x="4.15766739" y="0.50392022" width="1.78185745" height="10.0784044"></rect>
                    <polygon id="Rectangle" transform="translate(5.048596, 5.543122) rotate(90.000000) translate(-5.048596, -5.543122) " points="4.15932514 0.494526309 5.93786709 0.494526309 5.93786709 10.5917185 4.15932514 10.5917185"></polygon>
                </g>
                <g id="Group" opacity="0.5" transform="translate(488.822894, 104.933975)" fill="#47E6B1">
                    <rect id="Rectangle" x="4.15766739" y="0.50392022" width="1.78185745" height="10.0784044"></rect>
                    <polygon id="Rectangle" transform="translate(5.048596, 5.543122) rotate(90.000000) translate(-5.048596, -5.543122) " points="4.15932514 0.494526309 5.93786709 0.494526309 5.93786709 10.5917185 4.15932514 10.5917185"></polygon>
                </g>
                <g id="Group" opacity="0.5" transform="translate(429.427646, 270.338377)" fill="#47E6B1">
                    <rect id="Rectangle" x="4.15766739" y="0.50392022" width="1.78185745" height="10.0784044"></rect>
                    <polygon id="Rectangle" transform="translate(5.048596, 5.543122) rotate(90.000000) translate(-5.048596, -5.543122) " points="4.15932514 0.494526309 5.93786709 0.494526309 5.93786709 10.5917185 4.15932514 10.5917185"></polygon>
                </g>
                <ellipse id="Oval" fill="#F55F44" opacity="0.5" cx="429.427646" cy="48.524553" rx="3.5637149" ry="3.55708391"></ellipse>
                <ellipse id="Oval" fill="#F55F44" opacity="0.5" cx="3.5637149" cy="7.61808803" rx="3.5637149" ry="3.55708391"></ellipse>
                <ellipse id="Oval" fill="#F55F44" opacity="0.5" cx="110.475162" cy="212.150413" rx="3.5637149" ry="3.55708391"></ellipse>
                <ellipse id="Oval" fill="#000000" opacity="0.05" cx="138.984881" cy="91.5534113" rx="20.1943844" ry="4.14993122"></ellipse>
                <ellipse id="Oval" fill="#000000" opacity="0.05" cx="138.984881" cy="122.974319" rx="20.1943844" ry="4.14993122"></ellipse>
                <ellipse id="Oval" fill="#000000" opacity="0.05" cx="368.844492" cy="91.5534113" rx="20.1943844" ry="4.14993122"></ellipse>
                <ellipse id="Oval" fill="#000000" opacity="0.05" cx="368.844492" cy="122.974319" rx="20.1943844" ry="4.14993122"></ellipse>
                <ellipse id="Oval" fill="#000000" opacity="0.05" cx="256.587473" cy="73.7679917" rx="20.1943844" ry="4.14993122"></ellipse>
                <ellipse id="Oval" fill="#000000" opacity="0.05" cx="271.436285" cy="30.4901376" rx="20.1943844" ry="4.14993122"></ellipse>
                <ellipse id="Oval" fill="#000000" opacity="0.05" cx="232.829374" cy="48.2755571" rx="20.1943844" ry="4.14993122"></ellipse>
                <ellipse id="Oval" fill="#000000" opacity="0.05" cx="307.073434" cy="55.9825722" rx="20.1943844" ry="4.14993122"></ellipse>
                <ellipse id="Oval" fill="#000000" opacity="0.05" cx="256.587473" cy="135.424113" rx="20.1943844" ry="4.14993122"></ellipse>
            </g>
            <g id="undraw_Astronaut_xko2" transform="translate(213.500000, 235.000000)">
                <path d="M80.7008894,46.4233655 C80.6431256,48.5588342 79.9547729,50.5996628 79.1340447,52.5822513 C79.0137033,52.8734516 78.8909551,53.1622252 78.7682069,53.4485722 C78.640645,53.7397724 78.5130831,54.0309727 78.3855213,54.322173 C77.7164232,55.8461211 77.0328842,57.3919092 75.9786937,58.6756171 C75.918523,58.7484172 75.8583523,58.8212172 75.7957748,58.8915785 C75.5461241,59.1744621 75.2758028,59.4380892 74.9870807,59.6802459 C74.0914044,60.4765175 72.9642217,60.9592001 71.7739658,61.0561672 C69.4778523,61.1775007 67.4873914,59.5637658 65.7496763,58.0422444 C63.6773978,56.2319574 61.6051192,54.4192397 59.5328406,52.6040914 C58.8204196,51.9828641 57.0923294,50.4710493 56.9406873,50.3375826 L56.9406873,80.0060373 L56.4087784,80.0060373 L56.7264796,85.0316687 L57.390764,95.548852 C52.1700592,96.5131904 46.8734672,96.9988897 41.5658725,97 L41.1278299,85.0486554 L41.0026748,81.6440388 L40.9425042,80.0060373 L40.4466977,80.0060373 L40.4033748,80.8966248 L40.2084217,85.0486554 L39.6428172,96.97816 C34.350814,96.8703562 29.0792925,96.2807054 23.8925374,95.2163983 L24.5207194,85.0462287 L24.833607,80.0060373 L24.5231262,80.0060373 L24.5231262,49.8571021 C23.6032823,51.0807543 22.5788703,52.2207947 21.4616415,53.2641453 C19.2810557,55.3268139 16.7972096,57.1201223 14.3542796,58.867324 C12.8716737,59.9277783 11.1844876,61.022206 9.4587922,61.4420197 C9.19258736,61.5073522 8.92245371,61.5551774 8.65009812,61.5851932 C7.89127528,61.6813133 7.12067387,61.5973856 6.39971431,61.3400996 C6.1496746,61.2502417 5.90804289,61.1381749 5.67766602,61.0052193 C5.55010416,60.9348459 5.42976278,60.8596192 5.31182823,60.7795391 C3.50911435,59.5395113 2.56082427,57.1613757 1.81711454,54.9992136 C0.916961012,52.3784111 0.00236652067,49.6338486 0.385052111,46.8868593 C0.618514389,45.2245911 1.30686708,43.6982163 2.16851137,42.2494949 C2.75337048,41.266694 3.4176549,40.3202931 4.07471884,39.3933055 C4.39001325,38.9492251 4.77029201,38.4687447 5.27331899,38.3328512 L5.27572581,38.3328512 L5.31182823,38.3255712 C5.37258839,38.310581 5.43466125,38.3016403 5.49715395,38.2988778 C5.55736652,38.2967869 5.61764956,38.2984077 5.67766602,38.3037312 C6.18069299,38.3643979 6.60671351,38.7696516 6.97014689,39.1457853 C7.5309281,39.7281859 8.09091665,40.3097775 8.65011256,40.8905603 C8.91967725,41.1696272 9.18924195,41.4486941 9.45880664,41.7277611 C9.50212954,41.7738678 9.54545243,41.8199745 9.59118216,41.8660812 C9.94739264,42.2349349 10.3011963,42.6037886 10.6574068,42.9726423 C11.35298,41.7617344 12.0533668,40.5435466 12.7922629,39.3520522 C14.2941233,36.9253832 15.9548344,34.610341 18.0415683,32.6859925 C19.0782135,31.724617 20.2266241,30.8934873 21.4616704,30.2107902 C22.5333571,29.6144277 23.6762265,29.1585673 24.8625178,28.8542822 C26.2295959,28.5096953 27.2476839,28.3519618 27.9456639,28.599482 C28.4944206,28.7936155 28.8458175,29.2425493 29.0118886,30.05063 C29.0148753,30.0583767 29.0165041,30.0665878 29.0167022,30.0748967 C29.0948124,30.503072 29.1318878,30.9378304 29.1274163,31.3731646 C29.1274163,31.6425249 29.1274163,31.9118851 29.1250095,32.1836721 L51.9946565,32.1836721 C51.9729951,31.4847914 51.9537405,30.717964 51.9898429,30.0748967 C51.9970634,29.9196021 52.0090975,29.7715631 52.0235264,29.633243 C52.0303777,29.3138313 52.1199903,29.0017842 52.2834638,28.7280955 C52.5170636,28.4914803 52.8413148,28.3692159 53.1715832,28.3932151 C54.2257737,28.3786551 55.7492956,29.0848158 56.4954121,29.3663094 C57.5425656,29.7629688 58.5580138,30.2399939 59.5328286,30.7931907 C64.2357697,33.4479666 68.0096754,37.8183974 69.7425913,42.9799223 C69.9149844,42.3404077 70.2183415,41.744398 70.6331175,41.2302939 C70.9118437,40.8793027 71.2328142,40.5646529 71.5886281,40.2935997 C72.1611488,39.8545308 72.8089537,39.5254904 73.4996492,39.3229321 C73.9823464,39.1764362 74.4830178,39.0988377 74.9870687,39.0923986 C75.257647,39.0870472 75.5281866,39.1049072 75.7957627,39.1457853 C76.2292339,39.2083267 76.651538,39.3333655 77.0497199,39.5170657 C77.7001858,39.8223856 78.2842447,40.2545563 78.7681948,40.7886402 C78.8981635,40.929387 79.0185049,41.0749871 79.1340326,41.2254406 C79.8662872,42.2161631 80.3546409,43.3680984 80.5588746,44.5863771 C80.6706695,45.191899 80.7182755,45.8076915 80.7008894,46.4233655 Z" id="Path" fill="#FFFFFF"></path>
                <path d="M55.7553788,11.7211224 L55.7553788,11.7211224 C53.9455683,5.24039499 48.3142503,0 41.6437591,0 C34.9732679,0 29.3419739,5.24039499 27.5321634,11.7211224 L27.5321634,11.7211224 C25.8777022,11.7211224 24.5364964,13.0792502 24.5364964,14.7545857 L24.5364964,18.4435118 L27.0992234,18.4435118 C28.2028467,25.4924727 34.2937314,30.1646341 41.6437615,30.1646341 C48.9937916,30.1646341 55.0847003,25.4924727 56.1883237,18.4435118 L58.8284672,18.4435118 L58.8284672,14.8329789 C58.8284672,14.0076624 58.5046961,13.2161488 57.9283801,12.6325623 C57.3520641,12.0489759 56.5704121,11.7211211 55.7553788,11.7211224 L55.7553788,11.7211224 Z" id="Path" fill="#FFFFFF"></path>
                <ellipse id="Oval" fill="#6C63FF" cx="40.7956204" cy="16.2652439" rx="12.120438" ry="12.125"></ellipse>
                <path d="M42.7598428,6.83292897 C46.5202529,6.83001095 50.0630963,8.62533629 52.3248175,11.6799514 C50.5539271,7.3117132 46.4585995,4.37856451 41.8170124,4.15406873 C37.1754252,3.92957295 32.8247639,6.45422153 30.6540711,10.6318205 C28.4833782,14.8094194 28.8841735,19.8864711 31.6824328,23.6585366 C30.1595502,19.9001896 30.5802651,15.6171867 32.8041296,12.239331 C35.027994,8.86147541 38.7620846,6.8336918 42.7598428,6.83291915 L42.7598428,6.83292897 Z" id="Path" fill="#000000" opacity="0.2"></path>
                <ellipse id="Oval" fill="#000000" opacity="0.2" cx="40.7956204" cy="21.2926829" rx="6.79927007" ry="1.18292683"></ellipse>
            </g>
        </g>
    </g>
</svg>