<?xml version="1.0" encoding="UTF-8"?>
<svg width="560px" height="453px" viewBox="0 0 560 453" version="1.1" xmlns="http://www.w3.org/2000/svg">
    <title>Alpas Launch</title>
    <desc>https://alpas.dev</desc>
    <defs>
        <linearGradient x1="50%" y1="108.79834%" x2="50%" y2="0.557086094%" id="linearGradient-1">
            <stop stop-color="#240B0A" offset="0%"></stop>
            <stop stop-color="#3C1C06" offset="100%"></stop>
        </linearGradient>
    </defs>
    <g id="Page-3" stroke="none" stroke-width="1" fill="none" fill-rule="evenodd">
        <g id="launch">
            <g id="undraw_to_the_moon_v1mv" fill-rule="nonzero">
                <path
                    d="M560,121 L560,254.687975 C560,307.018807 539.230849,357.206706 502.257931,394.210192 C465.285013,431.213678 415.138574,452 362.850972,452 L0,452 L0,318.312025 C0,246.874177 37.9360691,184.297213 94.7524838,149.670769 C104.543137,143.698289 114.83934,138.598589 125.522246,134.430533 C131.80915,131.97242 138.220211,129.845081 144.729158,128.057234 C144.856156,128.014866 144.989201,127.978551 145.116199,127.948288 C147.039309,127.42172 148.974514,126.925413 150.921814,126.45937 C151.03067,126.429107 151.133477,126.404897 151.242333,126.380687 C163.243923,123.518752 175.487367,121.790243 187.811663,121.217891 C189.269114,121.151283 190.726566,121.09684 192.196112,121.066578 C192.722246,121.04842 193.254428,121.036315 193.792657,121.036315 C194.9054,121.012105 196.02419,121 197.149028,121 L560,121 Z"
                    id="Path" fill="#3F3D56"></path>
                <path
                    d="M260.999988,366 C117.153018,366 0.489071588,404.92343 0,453 L522,453 C521.51085,404.92343 404.846957,366 260.999988,366 Z"
                    id="Path" fill="#F2F2F2"></path>
                <g id="Group" opacity="0.1" transform="translate(164.000000, 405.000000)" fill="#000000">
                    <ellipse id="Oval" cx="48.5" cy="14" rx="48.5" ry="13.5265687"></ellipse>
                </g>
                <g id="Group" opacity="0.1" transform="translate(269.000000, 380.000000)" fill="#000000">
                    <ellipse id="Oval" cx="48.5" cy="14" rx="48.5" ry="13.5265687"></ellipse>
                </g>
                <g id="Group" opacity="0.1" transform="translate(169.000000, 407.000000)" fill="#000000">
                    <ellipse id="Oval" cx="43.5" cy="12" rx="43.5" ry="12"></ellipse>
                </g>
                <g id="Group" opacity="0.1" transform="translate(274.000000, 382.000000)" fill="#000000">
                    <ellipse id="Oval" cx="43.5" cy="12" rx="43.5" ry="12"></ellipse>
                </g>
                <circle id="Oval" fill="#F2F2F2" cx="83" cy="175" r="4"></circle>
                <circle id="Oval" fill="#F2F2F2" cx="448" cy="341" r="4"></circle>
                <circle id="Oval" fill="#F2F2F2" cx="248" cy="205" r="4"></circle>
                <circle id="Oval" fill="#FF6584" cx="457.5" cy="179.5" r="2.5"></circle>
                <circle id="Oval" fill="#FF6584" cx="93.5" cy="300.5" r="2.5"></circle>
                <polygon id="Path" fill="#F2F2F2"
                         points="57 351.911 56.089 351.911 56.089 351 55.911 351 55.911 351.911 55 351.911 55 352.089 55.911 352.089 55.911 353 56.089 353 56.089 352.089 57 352.089"></polygon>
                <polygon id="Path" fill="#F2F2F2"
                         points="410 261.911 409.089 261.911 409.089 261 408.911 261 408.911 261.911 408 261.911 408 262.089 408.911 262.089 408.911 263 409.089 263 409.089 262.089 410 262.089"></polygon>
                <polygon id="Path" fill="#F2F2F2"
                         points="502 243.911 501.089 243.911 501.089 243 500.911 243 500.911 243.911 500 243.911 500 244.089 500.911 244.089 500.911 245 501.089 245 501.089 244.089 502 244.089"></polygon>
                <polygon id="Path" fill="#F2F2F2"
                         points="305 291.911 304.089 291.911 304.089 291 303.911 291 303.911 291.911 303 291.911 303 292.089 303.911 292.089 303.911 293 304.089 293 304.089 292.089 305 292.089"></polygon>
                <polygon id="Path" fill="#F2F2F2"
                         points="475 297.911 474.089 297.911 474.089 297 473.911 297 473.911 297.911 473 297.911 473 298.089 473.911 298.089 473.911 299 474.089 299 474.089 298.089 475 298.089"></polygon>
                <polygon id="Path" fill="#F2F2F2"
                         points="270 323.911 269.089 323.911 269.089 323 268.911 323 268.911 323.911 268 323.911 268 324.089 268.911 324.089 268.911 325 269.089 325 269.089 324.089 270 324.089"></polygon>
                <polygon id="Path" fill="#F2F2F2"
                         points="348 325.911 347.089 325.911 347.089 325 346.911 325 346.911 325.911 346 325.911 346 326.089 346.911 326.089 346.911 327 347.089 327 347.089 326.089 348 326.089"></polygon>
                <polygon id="Path" fill="#F2F2F2"
                         points="58 222.911 57.089 222.911 57.089 222 56.911 222 56.911 222.911 56 222.911 56 223.089 56.911 223.089 56.911 224 57.089 224 57.089 223.089 58 223.089"></polygon>
                <rect id="Rectangle" fill="#E6E6E6" x="409" y="140" width="2" height="35"></rect>
                <polygon id="Path" fill="#E6E6E6"
                         points="370.000202 233 354 270.138917 357.130461 275.394241 356.086772 277.145812 363.391383 281 363.391383 278.897993 366.173948 278.19712 378 256.474346"></polygon>
                <path
                    d="M356.928346,277 C356.928346,277 344.952807,295.041226 358.337232,297.764429 C371.721658,300.487632 360.802786,278.701999 360.802786,278.701999 L356.928346,277 Z"
                    id="Path" fill="#E6E6E6"></path>
                <path
                    d="M374.062877,267.732362 L369.880022,281.329705 L368.137163,298.762191 L365,305.03789 L368.485713,333.278523 L374.062853,338.856916 L376.502855,366.748902 L376.502855,379.300294 L383.125712,390.805734 L374.597177,402.913475 C373.777508,404.072585 373.660617,405.588345 374.292871,406.859474 C374.925125,408.130604 376.20433,408.951639 377.623042,408.996887 C379.505939,409.046345 381.988069,408.514211 385.21714,406.843627 C395.325716,401.61388 394.977142,396.73278 394.977142,396.73278 C394.977142,396.73278 401.251431,396.73278 401.599999,391.851685 C401.948567,386.970591 397.765712,352.105607 397.765712,352.105607 L393.931431,337.113671 L393.931431,296.321641 L395.325716,296.321641 L396.022858,331.186625 L399.160021,344.086663 L399.508589,349.665063 L404.040019,405.449029 C404.040019,405.449029 424.257165,411.027422 425.302876,406.494975 C426.348586,401.962527 417.634308,399.17333 417.634308,399.17333 L422.86288,389.062489 L422.86288,369.538099 L421.12002,365.354304 L417.982858,337.113671 L423.21143,331.535272 L426,328.048776 L426,300.15679 L422.514287,289.348649 L421.468576,280.283766 L415.89143,266.337776 C415.89143,266.337776 390.445736,257.970167 374.062877,267.732362 Z"
                    id="Path" fill="#FFFFFF"></path>
                <path
                    d="M420,189.500569 C420,201.014899 412.563504,211.21148 401.598767,214.730419 C390.63403,218.249357 378.651461,214.285083 371.949768,204.921441 C365.248075,195.557799 365.361438,182.938352 372.230266,173.696587 L372.237247,173.689607 C379.054482,164.52018 390.982716,160.753351 401.830526,164.344315 C412.678336,167.935278 420.001949,178.075071 420,189.500569 L420,189.500569 Z"
                    id="Path" fill="#5260A2"></path>
                <g id="Group" opacity="0.1" transform="translate(371.000000, 164.000000)" fill="#000000">
                    <path
                        d="M44.8463919,14.442342 L42.6789365,26.69085 C26.3913689,-15.025128 0.483147973,10.599804 0.0356594595,11.048208 C5.47835314,3.82640307 14.2951912,-0.135861739 23.3896435,0.552986402 C32.4840957,1.24183454 40.5846697,6.48548799 44.8463919,14.442342 Z"
                        id="Path"></path>
                </g>
                <path
                    d="M417,176.851926 L414.82339,189 C398.467026,147.62608 372.449379,173.040896 372,173.485623 C377.465681,166.323034 386.31976,162.393259 395.452625,163.076458 C404.58549,163.759658 412.720279,168.960316 417,176.851926 L417,176.851926 Z"
                    id="Path" fill="#FFFFFF"></path>
                <path
                    d="M413.201003,172.132007 L416.80178,184.702551 C416.80178,184.702551 409.32728,207.233389 374.665962,208.018672 L373.529949,211.23715 L369.728106,212.279941 L368,219.579463 L372.838705,265.809768 C372.838705,265.809768 370.764974,270.328521 374.221193,269.980928 C374.221193,269.980928 397.032244,262.333807 416.732702,269.285736 C416.732702,269.285736 420.880164,271.023713 419.843319,267.200153 C419.843319,267.200153 433.668203,258.510247 432.631335,249.472741 C431.594467,240.435236 433.668203,198.376084 433.668203,198.376084 C433.668203,198.376084 435.741934,186.210204 429.520736,183.429447 C429.5207,183.429423 420.383637,170.567287 413.201003,172.132007 Z"
                    id="Path" fill="#FFFFFF"></path>
                <path
                    d="M404.975654,260 C404.975654,260 382.975689,262.20489 389.065608,274.380632 C395.155527,286.556374 406,264.109025 406,264.109025 L404.975654,260 Z"
                    id="Path" fill="#E6E6E6"></path>
                <path
                    d="M416.19231,205.776778 C416.19231,205.776778 412.384616,210.302222 413.769231,217.612553 C415.153846,224.922884 420.346154,241.284103 420.346154,241.284103 L402,258.341543 L407.538459,266 L432.461541,253.11989 L438,249.638769 L438,249.638769 C436.622862,235.558675 433.195909,221.758491 427.828952,208.68041 L426.923076,206.472988 C426.923076,206.472988 420.346154,203.688113 416.19231,205.776778 Z"
                    id="Path" fill="#E6E6E6"></path>
                <circle id="Oval" fill="#E6E6E6" cx="414.5" cy="186.5" r="6.5"></circle>
                <circle id="Oval" fill="#E6E6E6" cx="410.5" cy="139.5" r="4.5"></circle>
                <polygon id="Path" fill="#F2F2F2"
                         points="291 212.911 290.089 212.911 290.089 212 289.911 212 289.911 212.911 289 212.911 289 213.089 289.911 213.089 289.911 214 290.089 214 290.089 213.089 291 213.089"></polygon>
                <polygon id="Path" fill="#F2F2F2"
                         points="390 178.911 389.089 178.911 389.089 178 388.911 178 388.911 178.911 388 178.911 388 179.089 388.911 179.089 388.911 180 389.089 180 389.089 179.089 390 179.089"></polygon>
                <polygon id="Path" fill="#F2F2F2"
                         points="379 189.911 378.089 189.911 378.089 189 377.911 189 377.911 189.911 377 189.911 377 190.089 377.911 190.089 377.911 191 378.089 191 378.089 190.089 379 190.089"></polygon>
                <circle id="Oval" fill="#F2F2F2" cx="336.5" cy="161.5" r="2.5"></circle>
                <path
                    d="M217,178.379709 C217,347 195.730104,347 169.500018,347 C155.938988,347 143.704939,347 135.053464,323.707602 C132.56611,317.013404 130.368759,308.381763 128.526732,297.270538 C124.378647,272.293774 122,234.759951 122,178.379691 C122,156.699423 124.574443,135.445655 128.526732,115.594351 C130.426728,106.037414 132.645768,96.812988 135.053464,88.0150797 C137.99778,77.2436039 141.224842,67.1155336 144.480939,57.8477383 C146.663791,51.6162008 148.86838,45.7678303 151.007671,40.3676169 C160.89203,15.441467 169.500036,0 169.500036,0 C169.500036,0 217,85.2535753 217,178.379709 Z"
                    id="Path" fill="#F2F2F2"></path>
                <g id="Group" opacity="0.1" transform="translate(145.000000, 40.000000)" fill="#000000">
                    <path
                        d="M6.47018167,0.485420082 L6.47018167,294.578507 L0.189431667,294.578507 L0.189431667,17.97221 C2.290015,11.7383039 4.41153417,5.88771035 6.47018167,0.485420082 Z"
                        id="Path" opacity="0.557733445"></path>
                </g>
                <path
                    d="M224.9355,330.867265 C219.158321,316.569259 211.740475,314.10246 206.891815,314.316969 L206.891815,312 L131.108185,312 L131.108185,314.316969 C126.259525,314.10246 118.841679,316.569259 113.0645,330.867265 C103.681802,354.08851 118.838451,394 118.838451,394 C118.838451,394 110.738427,338.336473 137.636335,337.970101 C139.965759,341.025181 142.824268,343.63267 146.074522,345.66729 L146.074522,360.638399 L189.51227,360.638399 L189.51227,347.030457 C193.758429,344.865191 197.466791,341.768886 200.363677,337.970053 C227.261585,338.336473 219.161549,394 219.161549,394 C219.161549,394 234.318198,354.08851 224.9355,330.867265 Z"
                    id="Path" fill="#535072"></path>
            </g>
            <g id="Group-2-Copy-2" transform="translate(141.000000, 89.000000)">
                <g id="Circles" fill="url(#linearGradient-1)">
                    <circle id="Oval-Copy-2" opacity="0.345165308" cx="26" cy="26" r="26"></circle>
                    <circle id="Oval-Copy" opacity="0.652626812" cx="26.203125" cy="26.203125" r="22.75"></circle>
                    <circle id="Oval" cx="26.2270221" cy="26.2270221" r="19.1176471"></circle>
                </g>
                <path
                    d="M39.1741702,41.9765007 C38.7480439,41.7163026 38.2697265,41.5396929 37.7636305,41.4637556 C37.7296666,40.6103809 37.2368951,39.8429701 36.477123,39.4602312 C35.7173509,39.0774923 34.8106217,39.1398978 34.109872,39.623157 C33.4660285,39.1610432 32.6945871,38.912639 31.9033815,38.9126668 L31.6756148,38.9126668 C31.1322005,37.4022413 29.7055464,36.3956401 28.1072688,36.3949567 C27.9215798,36.3955299 27.7361257,36.4082727 27.5520873,36.4331039 C26.9492515,34.2156171 26.588081,31.9388477 26.4749403,29.6429161 C26.5749799,29.5826317 26.6362196,29.4740323 26.6362751,29.3568127 C26.6344348,29.3047467 26.6197605,29.2539542 26.5935689,29.2089926 C26.7738842,29.1470035 26.8877676,29.0516357 26.8877676,28.9514995 C26.8822976,28.8845424 26.8452502,28.824267 26.7881196,28.7893742 C26.9636899,28.7321536 27.0728281,28.6510909 27.0728281,28.5604915 C27.0654955,28.5002404 27.0278564,28.4480079 26.9731801,28.4222082 C27.1250246,28.3602191 27.2151823,28.2791565 27.2151823,28.1933255 L27.4714199,28.1933255 C27.4714199,28.1456415 27.4998908,28.0931893 27.5141262,28.0264318 C27.5283616,27.9596743 27.5568325,27.8261594 27.5805582,27.7069496 L28.6244892,27.7784755 C29.1464547,27.8166226 29.2650832,27.5495928 28.8854719,27.1871951 L27.708677,26.061855 C27.708677,25.9283401 27.708677,25.7900567 27.708677,25.6517734 C27.708677,25.3990487 27.708677,25.1367873 27.6564804,24.8697574 C27.6042839,24.6027276 27.5900485,24.3309293 27.5520873,24.0591311 C27.5141262,23.7873328 27.4571845,23.5155346 27.404988,23.2485047 C27.3527914,22.9814749 27.2911046,22.7192134 27.2294177,22.4664887 C27.1012989,21.956271 26.9541996,21.4842003 26.8071002,21.0741188 C26.731178,20.8738464 26.6600008,20.6878791 26.5935689,20.5209855 C26.5935689,20.47807 26.5556077,20.4399229 26.5413723,20.4017757 C26.5271369,20.3636286 26.5081563,20.3254815 26.4891758,20.2921028 L26.4464695,20.1871982 L26.3990181,20.0918304 C26.3752924,20.0346097 26.3468215,19.9821574 26.3230958,19.9344735 L26.261409,19.8152637 L26.2234479,19.7437379 C26.1981817,19.6946706 26.1583925,19.6546864 26.1095645,19.6292965 C26.0418267,19.5903346 25.9613018,19.5805131 25.8862556,19.6020599 C25.8112094,19.6236067 25.7480026,19.6746956 25.7109727,19.7437379 L25.6682664,19.8152637 C25.6682664,19.8486425 25.6303053,19.8867896 25.6065796,19.9344735 L25.5306573,20.0918304 L25.487951,20.1871982 L25.4404996,20.2921028 C25.4404996,20.3254815 25.4072836,20.3636286 25.3930482,20.4017757 C25.3788128,20.4399229 25.3598322,20.47807 25.3408517,20.5209855 C25.2744197,20.6878791 25.1984974,20.8738464 25.1273203,21.0741188 C24.980221,21.4842003 24.8331216,21.956271 24.7050028,22.4664887 C24.643316,22.7192134 24.5816291,22.9862433 24.5294326,23.2485047 C24.477236,23.5107662 24.4250395,23.7873328 24.3823332,24.0591311 C24.3396269,24.3309293 24.2637047,24.6027276 24.2304887,24.8745258 C24.1972727,25.1463241 24.1830373,25.4038171 24.173547,25.6613102 C24.173547,25.7948251 24.173547,25.9331085 24.173547,26.0666234 L22.9967521,27.1919635 C22.6171408,27.5543612 22.7357693,27.821391 23.26248,27.7832439 L24.306411,27.711718 C24.306411,27.8309278 24.3491172,27.9406008 24.3728429,28.0312002 C24.3965686,28.1217996 24.4013138,28.1504099 24.4108041,28.1980938 L24.6717868,28.1980938 C24.6717868,28.2839249 24.7619445,28.3649875 24.9090438,28.4269766 C24.8567743,28.4546619 24.8213188,28.5063244 24.814141,28.5652599 C24.814141,28.6558593 24.9232793,28.7369219 25.0988495,28.7941426 C25.0405377,28.8278251 25.0030658,28.8887913 24.9992015,28.9562679 C24.9992015,29.0564041 25.1130849,29.1517719 25.2934003,29.213761 C25.2657673,29.2580869 25.2509784,29.3092763 25.250694,29.3615811 C25.2592084,29.4813151 25.3269316,29.5887704 25.4310093,29.6476845 C25.3137715,32.2249367 24.8737509,34.7770641 24.1213505,37.2437302 C22.8729432,36.5288937 21.3505017,36.4928297 20.0699627,37.1477599 C18.7894238,37.8026902 17.922455,39.0608155 17.7628617,40.4957724 C17.0381796,40.7882887 16.4239794,41.2969344 16.0001548,41.9486168 L13.0642268,41.9486168 C12.9366272,41.9844139 12.8044902,42.0016327 12.6719303,41.9998783 L12.5505052,41.9998783 C12.1413633,41.9955175 11.7510351,41.828097 11.4670198,41.535006 C11.1678551,41.2383356 11,40.8352868 11,40.4150037 C11.0027284,40.1928479 11.0587706,39.9745576 11.1634571,39.7783219 C20.8516146,18.5942274 25.8160329,8.00145344 26.0567118,8 C26.2940093,8.00052997 31.2413035,18.5871075 40.8985944,39.7597327 C40.9777822,39.9622426 41.0112638,40.1795995 40.9966685,40.3964145 C41.0010348,40.8104012 40.8474953,41.2106371 40.5670105,41.5164168 C40.438944,41.6629977 40.2793124,41.7789578 40.0999909,41.8556706 C39.966745,41.9166352 39.8250627,41.9573651 39.6796733,41.9765007 L39.1741702,41.9765007 Z"
                    id="Combined-Shape" fill-opacity="0.838343524" fill="#FFFFFF" fill-rule="nonzero"
                    opacity="0.764229911"></path>
                <g id="Stars" transform="translate(11.000000, 1.000000)" fill="#FAFAFA" fill-opacity="0.693132926"
                   fill-rule="nonzero">
                    <path
                        d="M1.14606742,18 C1.0956261,17.4221632 0.609569857,16.9649791 0,16.9220098 C0,16.9220098 0,16.9220098 0,16.9220098 C0.83788122,16.8123837 1.05939005,16.4378278 1.16532905,15.6521739 C1.16532905,16.4104212 1.53130016,16.9311453 2.29213483,16.9220098 C2.29213483,16.9220098 2.29213483,16.9220098 2.29213483,16.9220098 C1.42536116,17.1138555 1.27126806,17.3605143 1.14606742,18 Z"
                        id="Shape"></path>
                    <path
                        d="M8.78651685,10.173913 C8.73607554,9.59607627 8.2500193,9.13889212 7.64044944,9.09592286 C7.64044944,9.09592286 7.64044944,9.09592286 7.64044944,9.09592286 C8.47833066,8.98629673 8.69983949,8.61174082 8.80577849,7.82608696 C8.80577849,8.58433429 9.1717496,9.10505837 9.93258427,9.09592286 C9.93258427,9.09592286 9.93258427,9.09592286 9.93258427,9.09592286 C9.06581059,9.28776857 8.9117175,9.53442734 8.78651685,10.173913 Z"
                        id="Shape-Copy"></path>
                    <path
                        d="M12.6067416,2.34782609 C12.5563003,1.76998932 12.070244,1.31280517 11.4606742,1.2698359 C11.4606742,1.2698359 11.4606742,1.2698359 11.4606742,1.2698359 C12.2985554,1.16020978 12.5200642,0.785653866 12.6260032,0 C12.6260032,0.758247335 12.9919743,1.27897141 13.752809,1.2698359 C13.752809,1.2698359 13.752809,1.2698359 13.752809,1.2698359 C12.8860353,1.46168161 12.7319422,1.70834038 12.6067416,2.34782609 Z"
                        id="Shape-Copy-2" opacity="0.819977679"></path>
                    <path
                        d="M23.6853933,17.2173913 C23.6517657,16.8321668 23.3277282,16.5273774 22.9213483,16.4987312 C22.9213483,16.4987312 22.9213483,16.4987312 22.9213483,16.4987312 C23.4799358,16.4256471 23.6276083,16.1759432 23.6982343,15.6521739 C23.6982343,16.1576721 23.9422151,16.5048215 24.4494382,16.4987312 C24.4494382,16.4987312 24.4494382,16.4987312 24.4494382,16.4987312 C23.8715891,16.6266283 23.7688604,16.7910675 23.6853933,17.2173913 Z"
                        id="Shape-Copy-3"></path>
                    <path
                        d="M33.0449438,17.6086957 C33.0029094,17.127165 32.5978625,16.7461782 32.0898876,16.7103705 C32.0898876,16.7103705 32.0898876,16.7103705 32.0898876,16.7103705 C32.788122,16.6190154 32.9727127,16.3068855 33.0609952,15.6521739 C33.0609952,16.2840467 33.3659711,16.7179834 34,16.7103705 C34,16.7103705 34,16.7103705 34,16.7103705 C33.2776886,16.8702419 33.1492777,17.0757909 33.0449438,17.6086957 Z"
                        id="Shape-Copy-4" opacity="0.768080357"></path>
                    <path
                        d="M24.8314607,8.60869565 C24.7473918,7.64563437 23.9372981,6.88366079 22.9213483,6.81204534 C22.9213483,6.81204534 22.9213483,6.81204534 22.9213483,6.81204534 C24.317817,6.62933514 24.6869984,6.00507528 24.8635634,4.69565217 C24.8635634,5.95939773 25.4735152,6.82727119 26.741573,6.81204534 C26.741573,6.81204534 26.741573,6.81204534 26.741573,6.81204534 C25.2969502,7.13178819 25.0401284,7.54288614 24.8314607,8.60869565 Z"
                        id="Shape-Copy-5" opacity="0.848995536"></path>
                </g>
            </g>
        </g>
    </g>
</svg>
